<svg width="900" height="1350" viewBox="0 0 900 1350" fill="none" xmlns="http://www.w3.org/2000/svg">
  <rect width="900" height="1350" fill="#07111D"/>
  <rect width="900" height="1350" fill="url(#sky)"/>
  <circle cx="710" cy="230" r="120" fill="url(#ringGlow)" opacity="0.9"/>
  <circle cx="710" cy="230" r="84" fill="#07111D"/>
  <path d="M148 1080C275 1000 367 915 445 802C518 696 582 555 648 360" stroke="#E9E0C9" stroke-width="18" stroke-linecap="round" opacity="0.85"/>
  <path d="M104 1152C251 1079 365 985 459 866C550 751 623 602 710 359" stroke="#B48C58" stroke-width="10" stroke-linecap="round" opacity="0.7"/>
  <circle cx="220" cy="282" r="3" fill="#F5F8FF"/>
  <circle cx="314" cy="226" r="4" fill="#F5F8FF"/>
  <circle cx="401" cy="178" r="2.5" fill="#F5F8FF"/>
  <circle cx="531" cy="268" r="3.5" fill="#F5F8FF"/>
  <circle cx="790" cy="520" r="2.5" fill="#F5F8FF"/>
  <circle cx="620" cy="156" r="2.5" fill="#F5F8FF"/>
  <circle cx="188" cy="186" r="2.5" fill="#F5F8FF"/>
  <text x="74" y="1120" fill="#F6EFE1" font-size="104" font-family="Arial, Helvetica, sans-serif" font-weight="700" letter-spacing="8">INTERSTELLAR</text>
  <text x="78" y="1188" fill="#C8D3E5" font-size="28" font-family="Arial, Helvetica, sans-serif" letter-spacing="7">BEND TIME. CROSS WORLDS. FIND HOME.</text>
  <defs>
    <linearGradient id="sky" x1="96" y1="84" x2="728" y2="1186" gradientUnits="userSpaceOnUse">
      <stop stop-color="#0E2134"/>
      <stop offset="0.52" stop-color="#09131F"/>
      <stop offset="1" stop-color="#01060B"/>
    </linearGradient>
    <radialGradient id="ringGlow" cx="0" cy="0" r="1" gradientUnits="userSpaceOnUse" gradientTransform="translate(710 230) rotate(90) scale(120)">
      <stop stop-color="#F4E7C1"/>
      <stop offset="1" stop-color="#A66D2E"/>
    </radialGradient>
  </defs>
</svg>
