<svg width="900" height="1350" viewBox="0 0 900 1350" fill="none" xmlns="http://www.w3.org/2000/svg">
  <rect width="900" height="1350" fill="#0D1120"/>
  <rect width="900" height="1350" fill="url(#city)"/>
  <path d="M0 1020L144 936L224 986L324 896L420 944L520 852L614 912L702 842L900 950V1350H0V1020Z" fill="#121826"/>
  <path d="M86 122L790 826" stroke="#4ED7FF" stroke-width="6" stroke-opacity="0.45"/>
  <path d="M772 112L118 768" stroke="#FF2F63" stroke-width="6" stroke-opacity="0.45"/>
  <path d="M208 82L812 686" stroke="#FFF7F9" stroke-width="2" stroke-opacity="0.28"/>
  <path d="M642 66L88 620" stroke="#FFF7F9" stroke-width="2" stroke-opacity="0.24"/>
  <circle cx="450" cy="520" r="140" fill="#FF305D"/>
  <path d="M376 482C401 454 427 442 450 442C473 442 499 454 524 482" stroke="#FFFFFF" stroke-width="24" stroke-linecap="round"/>
  <path d="M386 606C418 568 466 568 514 606" stroke="#FFFFFF" stroke-width="24" stroke-linecap="round"/>
  <circle cx="404" cy="512" r="22" fill="#FFFFFF"/>
  <circle cx="496" cy="512" r="22" fill="#FFFFFF"/>
  <text x="78" y="1082" fill="#FDF5FF" font-size="70" font-family="Arial, Helvetica, sans-serif" font-weight="700" letter-spacing="4">SPIDER-MAN</text>
  <text x="80" y="1156" fill="#60E6FF" font-size="58" font-family="Arial, Helvetica, sans-serif" font-weight="700" letter-spacing="3">INTO THE SPIDER-VERSE</text>
  <text x="82" y="1222" fill="#FF9FBD" font-size="28" font-family="Arial, Helvetica, sans-serif" letter-spacing="6">MILES LEAPS INTO A MULTIVERSE OF HEROES.</text>
  <defs>
    <linearGradient id="city" x1="84" y1="56" x2="774" y2="1208" gradientUnits="userSpaceOnUse">
      <stop stop-color="#10162B"/>
      <stop offset="0.45" stop-color="#16132F"/>
      <stop offset="1" stop-color="#05070F"/>
    </linearGradient>
  </defs>
</svg>
